:SAMPLES-PER-SECOND 30
:FRAME-RANGE 1-2045
:FULLY-SPECIFIED
:DEGREES
1790
root  -23.9476 39.3961 -44.1735 9.14081 42.3799 5.61035
RightUpLeg  -15.8931 -4.68057 -11.5542
RightLeg  22.2409 -2.42316 -1.30769
RightFoot  -9.154 -0.263748 10.5192
RightToes  -5.28216e-011 1.2921e-014 -6.02303e-014
Spine  2.16214 -0.629077 7.44792
Spine1  3.30883 -0.253404 -1.60633
HEad  9.25591 27.9194 -13.1304
LeftShoulder1  0.446558 -3.14024 1.46028
LeftArm  -24.0312 -8.00362 1.54554
LeftForeArm  -12.7339 -4.94579 -3.90718
LeftHand  -0.0120737 1.38528 0.133839
RightShoulder  0.703835 3.7987 1.68161
RightArm  -46.0129 22.9346 3.97759
RightForeArm  46.6846 9.23298 -1.01599
RightHand  -0.0563537 -5.04518 -13.8454
LeftUpLeg  -16.8054 0.385479 4.01666
LeftLeg  34.8727 3.30055 2.83367
LeftFoot  -8.94519 0.225097 -8.1942
LeftToes  9.43379e-011 5.24309e-011 -4.66411e-011
1791
root  -23.8335 39.522 -43.8015 9.32745 45.5453 5.95471
RightUpLeg  -13.6054 -7.64923 -11.2973
RightLeg  20.885 -2.6082 -1.31577
RightFoot  -9.43191 -0.239173 10.4672
RightToes  -5.28216e-011 1.2921e-014 -6.02303e-014
Spine  1.70811 -0.536677 7.4118
Spine1  3.05295 -0.24622 -1.33848
HEad  9.11986 26.4314 -13.296
LeftShoulder1  0.435595 -3.404 1.95753
LeftArm  -26.1775 -9.57292 2.71451
LeftForeArm  -12.6413 -7.37244 -3.7622
LeftHand  -0.0280899 1.21953 0.606599
RightShoulder  0.716465 3.9041 1.7201
RightArm  -45.5152 23.0894 3.58785
RightForeArm  45.5714 9.14102 -0.796015
RightHand  -0.0458622 -5.13593 -13.8961
LeftUpLeg  -16.5851 1.83687 4.47163
LeftLeg  31.5916 2.78396 2.19775
LeftFoot  -8.8504 0.257516 -9.39473
LeftToes  9.43379e-011 5.24309e-011 -4.66411e-011
1792
root  -23.6773 39.6166 -43.5044 9.56775 48.302 6.32031
RightUpLeg  -11.545 -10.2234 -11.2472
RightLeg  19.5874 -2.76593 -1.30281
RightFoot  -9.67021 -0.219821 10.5256
RightToes  -5.28216e-011 1.2921e-014 -6.02303e-014
Spine  1.14946 -0.473432 7.58561
Spine1  3.1926 -0.165496 -1.5751
HEad  8.30013 25.3715 -13.8527
LeftShoulder1  0.399242 -3.26814 2.43609
LeftArm  -28.6669 -10.953 3.21011
LeftForeArm  -11.7714 -10.1613 -3.63073
LeftHand  -0.0336923 0.725714 0.749681
RightShoulder  0.755884 4.14503 1.96553
RightArm  -45.4793 23.08 4.03065
RightForeArm  45.1492 9.64435 -0.66449
RightHand  -0.0426195 -5.16248 -13.7629
LeftUpLeg  -16.3305 2.57098 4.85907
LeftLeg  28.4183 4.23318 2.8215
LeftFoot  -8.47018 0.27881 -9.08987
LeftToes  9.43379e-011 5.24309e-011 -4.66411e-011
1793
root  -23.476 39.6913 -43.2707 9.7074 50.7786 6.51343
RightUpLeg  -9.57705 -11.9247 -11.2821
RightLeg  18.2865 -3.39298 -1.33148
RightFoot  -9.81186 -0.208738 10.6
RightToes  -5.28216e-011 1.2921e-014 -6.02303e-014
Spine  0.666847 -0.351168 7.72182
Spine1  3.40365 -0.0629304 -1.57762
HEad  7.0869 24.5013 -14.6166
LeftShoulder1  0.412825 -3.24948 2.17961
LeftArm  -29.9805 -11.7 3.94079
LeftForeArm  -11.1582 -13.6115 -3.92838
LeftHand  -0.0373448 0.368152 0.82588
RightShoulder  0.779279 4.16887 2.28647
RightArm  -45.527 23.6279 4.97259
RightForeArm  44.933 9.82801 -0.649302
RightHand  -0.0504528 -5.09528 -13.8022
LeftUpLeg  -15.9706 3.1968 5.4591
LeftLeg  25.149 6.7657 3.78683
LeftFoot  -7.18607 0.35868 -8.69009
LeftToes  9.43379e-011 5.24309e-011 -4.66411e-011
1794
root  -23.2372 39.7202 -43.1068 9.8136 52.8817 6.66656
RightUpLeg  -7.88554 -12.858 -11.4651
RightLeg  17.2825 -4.43491 -1.35342
RightFoot  -10.0025 -0.197843 11.0651
RightToes  -5.28216e-011 1.2921e-014 -6.02303e-014
Spine  0.248169 -0.239971 7.82402
Spine1  3.72443 0.0495009 -1.66604
HEad  5.89355 23.9512 -15.4324
LeftShoulder1  0.415561 -3.04468 1.8986
LeftArm  -30.8043 -12.4439 4.03292
LeftForeArm  -10.4212 -16.1646 -4.2501
LeftHand  -0.0377209 -0.00844044 0.883729
RightShoulder  0.825328 4.29493 2.78405
RightArm  -45.6017 24.5904 6.42583
RightForeArm  45.0496 9.602 -0.76742
RightHand  -0.0440091 -5.15148 -13.8652
LeftUpLeg  -15.6312 3.49722 6.22262
LeftLeg  21.9404 8.81474 4.21378
LeftFoot  -5.29775 0.434232 -7.61757
LeftToes  9.43379e-011 5.24309e-011 -4.66411e-011
1795
root  -22.9573 39.7085 -43.0336 10.0826 54.5532 6.88275
RightUpLeg  -6.69522 -13.3239 -11.8006
RightLeg  16.742 -5.48549 -1.43109
RightFoot  -10.2908 -0.175917 11.5002
RightToes  -5.28216e-011 1.2921e-014 -6.02303e-014
Spine  0.000240829 -0.0404018 7.92439
Spine1  3.79004 0.27611 -1.85159
HEad  5.26128 23.6703 -16.0675
LeftShoulder1  0.442651 -2.96587 1.31172
LeftArm  -31.214 -12.7825 3.51737
LeftForeArm  -9.69603 -18.619 -4.61228
LeftHand  -0.0371323 -0.0885942 0.869586
RightShoulder  0.858448 4.2555 3.34609
RightArm  -45.8076 26.0918 8.73111
RightForeArm  45.3088 8.93465 -1.14372
RightHand  -0.0621768 -4.99828 -13.992
LeftUpLeg  -15.5525 3.17434 7.13018
LeftLeg  19.1121 9.58669 3.99661
LeftFoot  -4.09182 0.454844 -6.7884
LeftToes  9.43379e-011 5.24309e-011 -4.66411e-011
1796
root  -22.6357 39.6642 -43.0146 10.2585 55.942 7.01166
RightUpLeg  -5.74785 -13.4073 -12.0992
RightLeg  16.5561 -6.58066 -1.7168
RightFoot  -10.6702 -0.145024 12.2942
RightToes  -5.28216e-011 1.2921e-014 -6.02303e-014
Spine  -0.179259 0.060569 8.0476
Spine1  3.83895 0.456756 -2.29246
HEad  5.1622 23.7774 -16.2624
LeftShoulder1  0.472818 -2.80187 0.532349
LeftArm  -30.7418 -13.0088 2.62641
LeftForeArm  -9.53433 -20.4082 -4.9285
LeftHand  -0.0391266 -0.179376 0.843103
RightShoulder  0.903852 4.20269 4.12297
RightArm  -46.0584 27.5914 12.4921
RightForeArm  44.6732 8.60028 -1.61948
RightHand  -0.0511243 -5.09431 -14.1382
LeftUpLeg  -15.5246 2.39106 8.34554
LeftLeg  16.6295 9.43863 3.51017
LeftFoot  -4.25005 0.429695 -6.51976
LeftToes  9.43379e-011 5.24309e-011 -4.66411e-011
1797
root  -22.2879 39.5872 -43.047 10.4865 56.9376 7.13812
RightUpLeg  -5.28515 -13.694 -12.4224
RightLeg  16.928 -7.05693 -2.10692
RightFoot  -11.1481 -0.0980943 13.0266
RightToes  -5.28216e-011 1.2921e-014 -6.02303e-014
Spine  -0.277723 0.147874 7.85234
Spine1  3.89406 0.620774 -2.7264
HEad  5.42478 24.0795 -16.1138
LeftShoulder1  0.519509 -2.63809 -0.605197
LeftArm  -29.3183 -12.9749 1.53349
LeftForeArm  -9.234 -21.6684 -5.15104
LeftHand  -0.0468752 -0.199248 1.00464
RightShoulder  0.965725 4.18191 5.09836
RightArm  -46.0228 29.297 17.3655
RightForeArm  43.1854 7.89279 -2.26517
RightHand  -0.0861791 -4.80278 -14.2294
LeftUpLeg  -15.591 1.78054 9.58886
LeftLeg  14.297 8.5754 3.2104
LeftFoot  -4.4567 0.385235 -5.95738
LeftToes  9.43379e-011 5.24309e-011 -4.66411e-011
1798
root  -21.9147 39.4914 -43.1372 10.7275 57.8016 7.27478
RightUpLeg  -4.95348 -13.8902 -12.8131
RightLeg  17.4521 -7.51098 -2.58149
RightFoot  -11.6149 -0.0457446 13.9728
RightToes  -5.28216e-011 1.2921e-014 -6.02303e-014
Spine  -0.309591 0.140569 7.36373
Spine1  4.15707 0.684123 -3.10283
HEad  5.35116 24.3699 -15.964
LeftShoulder1  0.557037 -2.25581 -2.0546
LeftArm  -27.2028 -12.9061 0.229964
LeftForeArm  -8.76363 -22.5517 -5.28786
LeftHand  -0.0477666 -0.0829638 1.03195
RightShoulder  1.08254 4.336 6.5392
RightArm  -44.92 30.5033 22.6579
RightForeArm  40.9854 7.60098 -2.40576
RightHand  -0.069104 -4.94231 -14.106
LeftUpLeg  -15.7621 1.99095 10.6445
LeftLeg  12.0922 6.80575 3.20141
LeftFoot  -5.09697 0.30535 -5.03611
LeftToes  9.43379e-011 5.24309e-011 -4.66411e-011
1799
root  -21.5027 39.343 -43.3009 10.7668 58.9652 7.10571
RightUpLeg  -4.75543 -14.2406 -13.1452
RightLeg  18.3317 -7.99746 -3.07725
RightFoot  -12.1541 0.02392 14.9912
RightToes  -5.28216e-011 1.2921e-014 -6.02303e-014
Spine  -0.101887 0.0746115 6.79544
Spine1  4.27996 0.61871 -3.14143
HEad  4.89157 24.2995 -15.9771
LeftShoulder1  0.640262 -2.36161 -3.50786
LeftArm  -24.8432 -12.2311 -1.68363
LeftForeArm  -8.57077 -23.0953 -5.37406
LeftHand  -0.0359341 -0.12191 0.777596
RightShoulder  1.19128 4.43309 7.9268
RightArm  -42.4709 31.1117 28.0744
RightForeArm  38.9791 7.03966 -2.07052
RightHand  -0.10436 -4.61825 -13.5666
LeftUpLeg  -16.4075 3.1518 11.6734
LeftLeg  10.3702 5.19708 3.41987
LeftFoot  -6.02185 0.257037 -4.75443
LeftToes  9.43379e-011 5.24309e-011 -4.66411e-011
1800
root  -21.0224 39.1708 -43.5465 10.6935 60.5106 6.75403
RightUpLeg  -4.42257 -14.8775 -13.5715
RightLeg  19.2492 -8.50271 -3.49002
RightFoot  -12.6404 0.0973049 16.0995
RightToes  -5.28216e-011 1.2921e-014 -6.02303e-014
Spine  0.220355 0.00415524 6.2088
Spine1  4.34908 0.486103 -2.86221
HEad  4.28382 23.7062 -15.8077
LeftShoulder1  0.685901 -2.11638 -5.03657
LeftArm  -22.0917 -12.5576 -4.46475
LeftForeArm  -9.56769 -22.8375 -5.39056
LeftHand  -0.0257586 -0.176331 0.56201
RightShoulder  1.31821 4.43291 9.76969
RightArm  -40.0016 31.1257 33.0015
RightForeArm  38.7951 6.71787 -1.58287
RightHand  -0.0976675 -4.6399 -12.8231
LeftUpLeg  -17.5176 4.28678 12.5942
LeftLeg  9.21471 4.84222 3.77548
LeftFoot  -6.67549 0.223884 -4.51176
LeftToes  9.43379e-011 5.24309e-011 -4.66411e-011
1801
root  -20.4687 38.9821 -43.8669 10.4587 62.354 6.01154
RightUpLeg  -3.89734 -15.6169 -13.9368
RightLeg  19.7329 -9.18358 -3.84482
RightFoot  -12.8816 0.149163 17.519
RightToes  -5.28216e-011 1.2921e-014 -6.02303e-014
Spine  0.562803 -0.158303 5.86435
Spine1  4.35209 0.283748 -2.69956
HEad  3.21221 22.8045 -15.2964
LeftShoulder1  0.755584 -2.05786 -6.65553
LeftArm  -18.6527 -12.7917 -7.06313
LeftForeArm  -10.2505 -22.6825 -5.4202
LeftHand  -0.0110405 -0.168169 0.25185
RightShoulder  1.41659 4.34704 11.4178
RightArm  -37.3642 30.3369 38.5816
RightForeArm  37.8404 6.37527 -1.03599
RightHand  -0.0952874 -4.67235 -13.0265
LeftUpLeg  -19.2134 5.17638 13.4305
LeftLeg  8.8631 6.49952 4.20361
LeftFoot  -6.95363 0.214014 -4.49701
LeftToes  9.43379e-011 5.24309e-011 -4.66411e-011
1802
root  -19.8132 38.7869 -44.2626 9.97339 64.5437 4.81909
RightUpLeg  -2.92476 -16.9028 -14.3135
RightLeg  19.4658 -9.69295 -3.98498
RightFoot  -12.8834 0.168461 18.9057
RightToes  -5.28216e-011 1.2921e-014 -6.02303e-014
Spine  0.717202 -0.358082 5.654
Spine1  4.48003 0.0545719 -2.60902
HEad  1.56633 21.3972 -14.3436
LeftShoulder1  0.78024 -1.87027 -7.76312
LeftArm  -15.7783 -13.2189 -10.5817
LeftForeArm  -10.0494 -22.3863 -5.40833
LeftHand  0.0179367 -0.310668 -0.333593
RightShoulder  1.56634 4.39116 13.4627
RightArm  -34.712 28.8953 43.442
RightForeArm  36.8601 6.13298 -0.314034
RightHand  -0.0944234 -4.66318 -12.6864
LeftUpLeg  -21.3518 6.29443 13.9221
LeftLeg  9.20851 10.3778 4.57615
LeftFoot  -6.3252 0.237689 -4.55932
LeftToes  9.43379e-011 5.24309e-011 -4.66411e-011
